<svg id="Group_1_copy" data-name="Group 1 copy" xmlns="http://www.w3.org/2000/svg" width="1829" height="206" viewBox="0 0 1829 206">
  <defs>
    <style>
      .cls-1 {
        fill-rule: evenodd;
      }
    </style>
  </defs>
  <path id="Ram_Shrikhande" data-name="Ram Shrikhande" class="cls-1" d="M13.05,202.745V115.177H85.769l42.4,87.568H142.2L98.684,113.212q20.775-4.769,31.727-19.085t10.949-33.4A54.172,54.172,0,0,0,134.2,32.8q-7.159-12.209-21.058-19.366T79.311,6.278H0.135V202.745H13.05Zm0-184.4H78.469q24.143,0,36.921,12.069t12.774,30.312A40.073,40.073,0,0,1,115.39,90.9q-12.78,12.209-36.921,12.209H13.05V18.347ZM221.659,200.78A70.944,70.944,0,0,0,243,187.308v15.437h12.354v-94.3q0-22.734-13.618-34.663T203.128,61.85a93.23,93.23,0,0,0-24.145,3.228,129.447,129.447,0,0,0-25.269,9.964l5.334,10.946a138.835,138.835,0,0,1,23.865-10.1A69.951,69.951,0,0,1,202.848,72.8q19.373,0,29.761,9.4T243,110.686V133.7q-19.1-12.064-43.8-12.069T159.61,133.28q-14.886,11.649-14.881,30.733a37.448,37.448,0,0,0,6.458,21.751,42.225,42.225,0,0,0,17.969,14.6q11.51,5.19,26.673,5.192A68.283,68.283,0,0,0,221.659,200.78ZM168.313,141q11.228-8.7,29.481-8.7a85.022,85.022,0,0,1,24.988,3.368A64.892,64.892,0,0,1,243,146.05v28.628a65.285,65.285,0,0,1-20.215,14.735q-11.234,5.2-26.111,5.192-17.128,0-28.358-8.7t-11.23-22.173A27.416,27.416,0,0,1,168.313,141Zm122.972,61.747V97.495a53.642,53.642,0,0,1,16.987-17.822,41.826,41.826,0,0,1,22.882-6.315q19.09,0,29.761,11.928t10.669,32.7v84.762h12.354v-88.13a62.466,62.466,0,0,0-.421-7.437,67.747,67.747,0,0,0-1.264-7.157,57.9,57.9,0,0,1,17.408-19.507,41.5,41.5,0,0,1,24.146-7.157q19.089,0,29.761,11.928t10.669,32.7v84.762h12.354v-88.13q0-15.714-6.317-27.645a45.941,45.941,0,0,0-17.548-18.524q-11.233-6.591-26.111-6.6-15.446,0-27.375,7.017T378.6,89.355a48.416,48.416,0,0,0-17.968-20.068,48.974,48.974,0,0,0-26.673-7.438q-26.677,0-42.677,20.769V64.657H278.932V202.745h12.353ZM649.4,198.114q17.826-7.434,27.515-21.191t9.687-31.715Q686.6,122.2,672,109T626.236,90.759l-32.007-5.052q-18.531-3.085-26.673-9.543T559.414,58.2a24.415,24.415,0,0,1,5.194-15.577q5.192-6.591,14.88-10.244a64.041,64.041,0,0,1,22.6-3.649q32.567,0,64.295,24.137L682.67,30.135A132.7,132.7,0,0,0,603.494,3.471q-21.624,0-38.044,7.017T540.041,30.415a50.777,50.777,0,0,0-8.985,29.751q0,21.05,13.337,33.68t40.57,17.121l32.569,5.613q21.334,3.368,30.6,10.525t9.265,20.348a26.205,26.205,0,0,1-6.036,16.981q-6.042,7.44-16.706,11.647a67.021,67.021,0,0,1-24.707,4.21,84.322,84.322,0,0,1-35.237-7.578q-16.707-7.578-32.709-23.295l-17.969,20.769a118.012,118.012,0,0,0,84.23,35.364Q631.568,205.551,649.4,198.114Zm75.1,4.631V100.3a44.2,44.2,0,0,1,15.02-13.893A40.673,40.673,0,0,1,759.6,81.5q16.563,0,26.112,9.683t9.545,26.523v85.042h28.077V112.931q0-16.839-7.16-29.329A51.171,51.171,0,0,0,796.518,64.1q-12.5-7.012-29.059-7.017-26.394,0-42.957,17.4V0.1L696.425,6.278V202.745H724.5Zm145.151,0V107.037q5.614-12.63,15.162-19.225a37.141,37.141,0,0,1,21.619-6.6,53.225,53.225,0,0,1,8.7.7A35.48,35.48,0,0,1,923.28,84.3V59.043Q917.66,56.8,908.961,56.8a45.262,45.262,0,0,0-22.6,5.613,48.673,48.673,0,0,0-16.706,15.717V59.6H841.577v143.14h28.076Zm90.4,0V59.885H931.982v142.86h28.076ZM958.374,31.538a16.467,16.467,0,0,0,5.054-12.069A16.8,16.8,0,0,0,958.374,7.12,16.81,16.81,0,0,0,946.02,2.068,16.478,16.478,0,0,0,933.947,7.12a16.474,16.474,0,0,0-5.054,12.069,16.792,16.792,0,0,0,5.054,12.349A16.478,16.478,0,0,0,946.02,36.59,16.81,16.81,0,0,0,958.374,31.538Zm48.846,171.207v-67.36l69.07,67.36h37.06l-77.77-76.061,73.84-66.8h-32.85l-69.35,62.589V0.945L979.147,6.278V202.745h28.073Zm133.08,0V100.3a44.307,44.307,0,0,1,15.02-13.893A40.7,40.7,0,0,1,1175.4,81.5q16.56,0,26.11,9.683t9.55,26.523v85.042h28.07V112.931q0-16.839-7.16-29.329A51.116,51.116,0,0,0,1212.32,64.1q-12.495-7.012-29.06-7.017-26.4,0-42.96,17.4V0.1l-28.07,6.175V202.745h28.07Zm186.15-1.123a63.33,63.33,0,0,0,20.21-11.227v12.35h27.8V107.879q0-24.417-15.3-37.609-15.315-13.189-43.1-13.191a118.286,118.286,0,0,0-28.5,3.508,162.294,162.294,0,0,0-30.18,11.086l10.67,21.05a156.55,156.55,0,0,1,23.72-9.122,75.4,75.4,0,0,1,20.36-2.947q17.115,0,25.83,7.578,8.7,7.578,8.7,23.014v14.876a97.358,97.358,0,0,0-38.74-7.578q-26.685,0-42.26,11.507t-15.58,31.715a39.146,39.146,0,0,0,6.74,22.734,44.7,44.7,0,0,0,18.53,15.3q11.79,5.472,27.51,5.473A74.227,74.227,0,0,0,1326.45,201.622Zm-40.71-57.537q8.97-6.453,24.7-6.455a79.923,79.923,0,0,1,19.38,2.245,66.434,66.434,0,0,1,16.84,6.736v24.138a46.253,46.253,0,0,1-16.84,10.384,62.093,62.093,0,0,1-20.78,3.368q-14.325,0-23.3-6.455-9-6.453-8.99-17.121Q1276.75,150.545,1285.74,144.085Zm135.32,58.66V100.3a44.307,44.307,0,0,1,15.02-13.893,40.7,40.7,0,0,1,20.08-4.912q16.56,0,26.11,9.683t9.54,26.523v85.042h28.08V112.931q0-16.557-7.16-29.189A50.889,50.889,0,0,0,1493.08,64.1q-12.495-7.012-29.06-7.017-26.4,0-42.96,17.4V59.885h-28.08v142.86h28.08Zm226.58-13.753v13.753h27.79V0.945l-28.08,5.333v65.4a67.277,67.277,0,0,0-20.21-10.525,74.113,74.113,0,0,0-22.74-3.508,72.265,72.265,0,0,0-36.92,9.683,71.436,71.436,0,0,0-26.4,26.383,72.845,72.845,0,0,0-9.68,37.188q0,21.049,9.54,37.75a72.042,72.042,0,0,0,62.9,36.346q25.545,0,43.8-16h0Zm-64.72-15.016a47.408,47.408,0,0,1-17.41-17.822,50.607,50.607,0,0,1-6.32-25.26,50.634,50.634,0,0,1,6.32-25.26,45.421,45.421,0,0,1,17.41-17.542,48.759,48.759,0,0,1,24.57-6.315,57.077,57.077,0,0,1,22.6,4.491,44.764,44.764,0,0,1,17.26,12.63v64.553a47.681,47.681,0,0,1-17.26,12.63,55.709,55.709,0,0,1-22.6,4.491A47.128,47.128,0,0,1,1582.92,173.976Zm209.59,26.664a86.431,86.431,0,0,0,25.55-14.174l-17.69-17.4a48.894,48.894,0,0,1-16,8.981,60.385,60.385,0,0,1-20.22,3.368,47.433,47.433,0,0,1-22.46-5.473,47.871,47.871,0,0,1-25.55-35.785h112.87v-7.578q0-21.326-9.13-38.311a71.55,71.55,0,0,0-24.7-26.944,64.051,64.051,0,0,0-35.24-9.964,68.544,68.544,0,0,0-36.5,9.964,75.031,75.031,0,0,0-25.97,26.523q-9.69,16.564-9.69,37.329a72.377,72.377,0,0,0,10.11,37.749,73.327,73.327,0,0,0,27.09,26.664,75.484,75.484,0,0,0,38.05,9.683A90.214,90.214,0,0,0,1792.51,200.64ZM1724.42,99.459a44.663,44.663,0,0,1,15.02-13.332,40.342,40.342,0,0,1,19.66-4.912,38.749,38.749,0,0,1,19.37,4.912A45.047,45.047,0,0,1,1793.21,99.6a48.222,48.222,0,0,1,8,19.506h-84.79A47.242,47.242,0,0,1,1724.42,99.459Z"/>
</svg>
