<svg xmlns="http://www.w3.org/2000/svg" width="2263" height="226" viewBox="0 0 2263 226">
  <defs>
    <style>
      .cls-1 {
        stroke: #000;
        stroke-linejoin: round;
        stroke-width: 2px;
        fill-rule: evenodd;
      }
    </style>
  </defs>
  <path id="RamShrikhande" class="cls-1" d="M156.263,49.143A79.041,79.041,0,0,0,139.1,23.9,82.491,82.491,0,0,0,113.7,6.906,76.666,76.666,0,0,0,83.009.637H3.814a2.625,2.625,0,0,0-2.97,2.97V221.721q0,3.3,2.97,3.3t2.97-3.3V159.355H83.009a70,70,0,0,1,25.738,4.785,75.422,75.422,0,0,1,21.943,13.2,73.409,73.409,0,0,1,24.583,45.042,3.114,3.114,0,0,0,3.3,2.64h0.33q3.3-.658,2.64-3.63A77.871,77.871,0,0,0,142.4,180.309a80.549,80.549,0,0,0-37.617-23.923,79.463,79.463,0,0,0,23.1-10.89A80.535,80.535,0,0,0,146.2,128.173a79.086,79.086,0,0,0,16.334-48.342A76.658,76.658,0,0,0,156.263,49.143ZM25.593,153.086H6.784V6.576H83.009a71.257,71.257,0,0,1,28.543,5.775,73.312,73.312,0,0,1,38.937,38.937,71.258,71.258,0,0,1,5.774,28.543,71.238,71.238,0,0,1-5.774,28.543,73.314,73.314,0,0,1-38.937,38.937,71.16,71.16,0,0,1-28.543,5.775H25.593ZM231.658,7.731a93.652,93.652,0,0,0-28.708,19.3,89.623,89.623,0,0,0-19.468,28.708,88.377,88.377,0,0,0-7.095,35.308V221.721q0,3.3,3.3,3.3,2.97,0,2.97-3.3V159.355H350.945v62.366q0,3.3,3.3,3.3,2.97,0,2.97-3.3V91.05a88.462,88.462,0,0,0-7.094-35.307,89.706,89.706,0,0,0-19.469-28.708,93.64,93.64,0,0,0-28.708-19.3A90.586,90.586,0,0,0,231.658,7.731ZM350.945,153.086H182.657V91.05a82.155,82.155,0,0,1,6.6-32.833A83.288,83.288,0,0,1,207.405,31.49a87.31,87.31,0,0,1,26.728-17.984,81.038,81.038,0,0,1,32.668-6.6,82.239,82.239,0,0,1,32.832,6.6,83.923,83.923,0,0,1,44.712,44.712,82.241,82.241,0,0,1,6.6,32.833v62.036ZM594.133,2.287L487.881,215.121,381.628,2.287a2.505,2.505,0,0,0-3.3-1.65,3.119,3.119,0,0,0-2.64,3.3V222.051q0,2.97,3.3,2.97a2.624,2.624,0,0,0,2.969-2.97V17.136L485.241,223.371a3.209,3.209,0,0,0,5.61,0L593.8,17.136V222.051q0,2.97,3.3,2.97a2.625,2.625,0,0,0,2.97-2.97V3.937a3.062,3.062,0,0,0-2.31-3.3,2.772,2.772,0,0,0-3.63,1.65h0Zm88.429,12.539h41.907a52.81,52.81,0,0,1,21.613,4.455,57.1,57.1,0,0,1,29.7,29.863,53.96,53.96,0,0,1,4.455,21.778,7.249,7.249,0,0,0,7.094,6.929,6.925,6.925,0,0,0,4.836-2.145,6.47,6.47,0,0,0,2.259-4.785,67.9,67.9,0,0,0-5.6-27.388A72.216,72.216,0,0,0,773.671,21.1a69.777,69.777,0,0,0-22.4-15.014A68.5,68.5,0,0,0,724.268.637H682.433a69.926,69.926,0,0,0-70.156,70.285,48.281,48.281,0,0,0,3.795,19.139,50.469,50.469,0,0,0,10.394,15.674,47.246,47.246,0,0,0,15.509,10.56,48.294,48.294,0,0,0,19.138,3.794h84.474a32.825,32.825,0,0,1,13.529,2.805,35.458,35.458,0,0,1,18.314,18.314,32.825,32.825,0,0,1,2.805,13.529,54.749,54.749,0,0,1-4.455,22.108,57.251,57.251,0,0,1-12.044,17.819,55.408,55.408,0,0,1-17.654,11.879,54.517,54.517,0,0,1-21.613,4.29H682.562a56.534,56.534,0,0,1-22.109-4.29,54.6,54.6,0,0,1-29.7-29.7,56.533,56.533,0,0,1-4.29-22.108,6.439,6.439,0,0,0-2.31-4.785,7.191,7.191,0,0,0-4.95-2.145,7.365,7.365,0,0,0-6.929,6.93,69.855,69.855,0,0,0,70.156,70.285h41.835a68.5,68.5,0,0,0,27.006-5.445,69.7,69.7,0,0,0,22.4-15.014,72.161,72.161,0,0,0,15.153-22.438,67.891,67.891,0,0,0,5.6-27.388,46.676,46.676,0,0,0-3.955-19.139,51,51,0,0,0-10.539-15.509A49.31,49.31,0,0,0,745.355,105.9H661.046a32.592,32.592,0,0,1-13.5-2.805,37.967,37.967,0,0,1-11.034-7.424A31.981,31.981,0,0,1,629.1,84.616a35.731,35.731,0,0,1-2.635-13.694,55.712,55.712,0,0,1,4.29-21.778,54.951,54.951,0,0,1,11.879-17.819,57.243,57.243,0,0,1,17.818-12.044,54.753,54.753,0,0,1,22.109-4.455h0ZM959.245,2.617A6.831,6.831,0,0,0,957.1,7.9v98H824.119V7.9a7.14,7.14,0,0,0-1.979-5.28,6.716,6.716,0,0,0-4.95-1.98q-7.262,0-7.26,7.259V218.091a7.047,7.047,0,0,0,7.26,6.93,6.446,6.446,0,0,0,4.95-2.145,6.879,6.879,0,0,0,1.979-4.785v-98H957.1v98a7.365,7.365,0,0,0,6.929,6.93,6.73,6.73,0,0,0,5.445-2.145,7.236,7.236,0,0,0,1.815-4.785V7.9q0-7.254-7.26-7.259A6.878,6.878,0,0,0,959.245,2.617ZM1147.66,49.968a81.831,81.831,0,0,0-42.9-42.9A76.827,76.827,0,0,0,1073.58.637H997.023a6.622,6.622,0,0,0-4.784,2.145,6.622,6.622,0,0,0-2.145,4.785V217.761a7.151,7.151,0,0,0,2.145,4.95,6.408,6.408,0,0,0,4.784,2.31,6.762,6.762,0,0,0,5.117-2.31,7.158,7.158,0,0,0,2.14-4.95v-56.1h69.3a61.67,61.67,0,0,1,23.26,4.455,67.864,67.864,0,0,1,19.8,12.209,70.4,70.4,0,0,1,14.68,18.314,63.58,63.58,0,0,1,7.59,23.1,7.717,7.717,0,0,0,2.81,3.63,8.111,8.111,0,0,0,5.11,1.65,7.871,7.871,0,0,0,5.28-2.97,6.918,6.918,0,0,0,.99-5.61v0.33a77.58,77.58,0,0,0-15.51-37.617,79.509,79.509,0,0,0-31.34-24.418,82.147,82.147,0,0,0,34.31-29.368,86.02,86.02,0,0,0,9.9-20.789,75.6,75.6,0,0,0,3.63-23.428A76.844,76.844,0,0,0,1147.66,49.968Zm-143.38,97.508V14.826h69.3a63.117,63.117,0,0,1,25.57,5.269,68.038,68.038,0,0,1,35.47,35.385,63.51,63.51,0,0,1,5.28,25.836,63.514,63.514,0,0,1-5.28,25.841,66.172,66.172,0,0,1-14.35,20.9,69.927,69.927,0,0,1-21.12,14.153,63.116,63.116,0,0,1-25.57,5.264h-69.3ZM1173.06,2.782a6.628,6.628,0,0,0-2.14,4.785V217.761a6.834,6.834,0,0,0,2.14,5.28,7.3,7.3,0,0,0,5.12,1.98,7.055,7.055,0,0,0,6.93-7.26V7.566a6.64,6.64,0,0,0-2.15-4.785,6.639,6.639,0,0,0-4.78-2.145A7,7,0,0,0,1173.06,2.782Zm178.02,0a6.429,6.429,0,0,0-2.31,4.785V70.592a33.885,33.885,0,0,1-2.8,13.694,35.425,35.425,0,0,1-7.4,11.054,35.974,35.974,0,0,1-10.87,7.425,32.547,32.547,0,0,1-13.49,2.8h-98.09v-98a6.782,6.782,0,0,0-2.03-4.785,6.682,6.682,0,0,0-5.06-2.145,6.847,6.847,0,0,0-4.9,2.145,6.547,6.547,0,0,0-2.2,4.785V217.761a7.064,7.064,0,0,0,2.2,4.95,6.616,6.616,0,0,0,4.9,2.31,6.453,6.453,0,0,0,5.06-2.31,7.337,7.337,0,0,0,2.03-4.95v-98h98.09a32.627,32.627,0,0,1,13.49,2.805,36.141,36.141,0,0,1,10.87,7.425,35.476,35.476,0,0,1,7.4,11.054,33.9,33.9,0,0,1,2.8,13.694v63.025a7.992,7.992,0,0,0,7.26,7.26,6.25,6.25,0,0,0,4.95-2.31,7.468,7.468,0,0,0,1.98-4.95V154.736a46.71,46.71,0,0,0-6.6-24.088,52.455,52.455,0,0,0-16.83-17.819,42.7,42.7,0,0,0,17.49-16.994q5.94-10.719,5.94-25.243V7.566a6.9,6.9,0,0,0-1.98-4.785,6.462,6.462,0,0,0-4.95-2.145A7.185,7.185,0,0,0,1351.08,2.782Zm177.03-.165a6.841,6.841,0,0,0-2.14,5.28v98H1392.98V7.9a7.174,7.174,0,0,0-1.97-5.28,6.716,6.716,0,0,0-4.95-1.98c-4.85,0-7.26,2.423-7.26,7.259V218.091a7.047,7.047,0,0,0,7.26,6.93,6.446,6.446,0,0,0,4.95-2.145,6.913,6.913,0,0,0,1.97-4.785v-98h132.99v98a7.356,7.356,0,0,0,6.92,6.93,6.735,6.735,0,0,0,5.45-2.145,7.21,7.21,0,0,0,1.81-4.785V7.9q0-7.254-7.26-7.259A6.878,6.878,0,0,0,1528.11,2.617Zm83.38,5.115a90.2,90.2,0,0,0-48.42,48.506,89.77,89.77,0,0,0-7.08,35.472V217.761a7.468,7.468,0,0,0,1.98,4.95,6.6,6.6,0,0,0,5.28,2.31,6.25,6.25,0,0,0,4.95-2.31,7.468,7.468,0,0,0,1.98-4.95v-56.1h153.77v56.1a7.558,7.558,0,0,0,1.93,4.95,6.76,6.76,0,0,0,5.49,2.31,6.224,6.224,0,0,0,4.67-2.31,7.24,7.24,0,0,0,2.1-4.95V91.71a88.008,88.008,0,0,0-7.25-35.472,93.461,93.461,0,0,0-19.6-29.038A90.9,90.9,0,0,0,1682.3,7.731,91.891,91.891,0,0,0,1611.49,7.731Zm112.46,139.745H1570.18V91.71a74.01,74.01,0,0,1,6.1-29.863A77.546,77.546,0,0,1,1617.2,20.93a76.106,76.106,0,0,1,59.73,0,77.573,77.573,0,0,1,40.91,40.917,74.017,74.017,0,0,1,6.11,29.863v55.766ZM1904.61,2.782a6.6,6.6,0,0,0-2.15,4.785v187.1q-17.16-24.749-33.99-48.342t-33.32-47.186q-16.515-23.588-33.17-47.187T1768.49,3.937a5.676,5.676,0,0,0-.82-0.66,7.583,7.583,0,0,1-1.16-.99,16.8,16.8,0,0,0-1.65-.99,5.342,5.342,0,0,0-2.31-.66,4.849,4.849,0,0,0-1.81.33c-0.56.222-1.05,0.443-1.49,0.66a5.937,5.937,0,0,0-1.65,1.65l-0.66,1.32a1.936,1.936,0,0,0-1.32,1.65l-0.33.66V217.761a7.468,7.468,0,0,0,1.98,4.95,6.6,6.6,0,0,0,5.28,2.31,6.25,6.25,0,0,0,4.95-2.31,7.468,7.468,0,0,0,1.98-4.95V30.665l134.3,191.056a24.559,24.559,0,0,0,2.64,2.31,4.826,4.826,0,0,0,2.97.99,5.235,5.235,0,0,1,1.32.165,1.38,1.38,0,0,0,1.32-.5,5.626,5.626,0,0,0,3.46-2.64,8.366,8.366,0,0,0,1.16-4.29V7.566a7.24,7.24,0,0,0-1.82-4.785,6.728,6.728,0,0,0-5.44-2.145A6.606,6.606,0,0,0,1904.61,2.782Zm38.43-2.145a7.26,7.26,0,0,0-5.61,2.145,6.9,6.9,0,0,0-1.98,4.785V217.761q0,7.263,7.59,7.26h74.91a88.328,88.328,0,0,0,35.3-7.095,91.56,91.56,0,0,0,28.88-19.468,93.318,93.318,0,0,0,19.63-29.038,87.834,87.834,0,0,0,7.26-35.473V91.71a86.7,86.7,0,0,0-7.26-35.307A93.259,93.259,0,0,0,2053.25,7.9a86.711,86.711,0,0,0-35.3-7.259h-74.91Zm151.79,133.31a73.836,73.836,0,0,1-6.12,29.863,77.576,77.576,0,0,1-41.01,40.917,74.27,74.27,0,0,1-29.93,6.1h-68.13V14.826h68.13a74.355,74.355,0,0,1,29.93,6.1,77.575,77.575,0,0,1,41.01,40.917,73.858,73.858,0,0,1,6.12,29.863v42.237Zm160.7-119.121a7.152,7.152,0,0,0,5.28-1.98,6.715,6.715,0,0,0,1.98-4.95c0-4.836-2.43-7.259-7.26-7.259H2129.15c-4.85,0-7.26,2.423-7.26,7.259V218.091a7.21,7.21,0,0,0,1.81,4.785,6.721,6.721,0,0,0,5.45,2.145h126.38a7.047,7.047,0,0,0,7.26-6.93c0-4.836-2.43-7.259-7.26-7.259H2136.07V120.088h100.98a6.71,6.71,0,0,0,5.44-2.145,7.659,7.659,0,0,0,1.82-5.114,6.569,6.569,0,0,0-7.26-6.93H2136.07V14.826h119.46Z"/>
</svg>
